/* XPM */
static char *laboratory[] = {
/* columns rows colors chars-per-pixel */
"72 72 112 2 ",
"   c #020202",
".  c #0B0B0B",
"X  c #100F0F",
"o  c #131313",
"O  c #1C1C1C",
"+  c #201F1F",
"@  c #1F2022",
"#  c #232323",
"$  c #22262A",
"%  c #24292F",
"&  c #2B2B2B",
"*  c #2D333C",
"=  c #333333",
"-  c #363738",
";  c #37393B",
":  c #3B3B3B",
">  c #403F3F",
",  c #323946",
"<  c #3D3F42",
"1  c #3D4450",
"2  c #444444",
"3  c #414548",
"4  c #474B4E",
"5  c #4B4B4B",
"6  c #454B55",
"7  c #4C5155",
"8  c #4F5359",
"9  c #545454",
"0  c #52575A",
"q  c #56595E",
"w  c #5C5C5C",
"e  c #5D6164",
"r  c #5E646B",
"t  c #646464",
"y  c #61666A",
"u  c #65696C",
"i  c #6B6B6B",
"p  c #646C73",
"a  c #676E79",
"s  c #6D7077",
"d  c #737373",
"f  c #70757A",
"g  c #777879",
"h  c #7A7A7A",
"j  c #6C7480",
"k  c #767C83",
"l  c #7C7F82",
"z  c #7F8183",
"x  c #7C828B",
"c  c #838383",
"v  c #828589",
"b  c #83898F",
"n  c #8B8C8C",
"m  c #828690",
"M  c #878A92",
"N  c #8E8F90",
"B  c #818A98",
"V  c #8F9092",
"C  c #939394",
"Z  c #94959A",
"A  c #979A9D",
"S  c #9B9B9B",
"D  c #A0A09F",
"F  c #9099A2",
"G  c #939DA9",
"H  c #9EA0A2",
"J  c #95A1AA",
"K  c #9CA2AA",
"L  c #9BA7B1",
"P  c #9CA8B3",
"I  c #A4A4A4",
"U  c #A4A5A9",
"Y  c #A6A8A8",
"T  c #ABABAB",
"R  c #A5ABB1",
"E  c #A2AFBA",
"W  c #ABB0B4",
"Q  c #AEB4BC",
"!  c #B4B4B4",
"~  c #B8B7B7",
"^  c #B8B8B7",
"/  c #BCBCBC",
"(  c #A7B5C3",
")  c #B3BBC4",
"_  c #BABEC3",
"`  c #B2BFD0",
"'  c #B7C2CD",
"]  c #BCC5CE",
"[  c #B5C2D1",
"{  c #B9C6D4",
"}  c #BEC9D4",
"|  c #BECCDB",
" . c #C3C3C3",
".. c #C3C5CB",
"X. c #CCCDCC",
"o. c #C2CCD7",
"O. c #CCCED1",
"+. c #C1CDD8",
"@. c #D4D5D4",
"#. c #D8D7D6",
"$. c #DBDBDA",
"%. c #CCD9E6",
"&. c #CBDAE9",
"*. c #D6E4F3",
"=. c #E5E5E5",
"-. c #E8E7E7",
";. c #EAEAEA",
":. c #F0F0EF",
">. c #F4F4F4",
",. c #F7F7F8",
"<. c #FEFEFE",
"1. c None",
/* pixels */
"1.1.1.1.1.1.1.1.1.1.1.1.1.1.1.1.1.1.1.1.1.1.1.1.1.1.1.1.1.1.1.1.1.1.1.1.1.1.1.1.1.1.1.1.1.1.1.1.1.1.1.1.1.1.1.1.1.1.1.1.1.1.1.1.1.1.1.1.1.1.1.1.",
"1.1.1.1.1.1.1.1.1.1.1.1.1.1.1.1.1.1.1.1.1.1.1.1.1.: 4 F r 1.1.1.1.1.1.1.1.1.1.1.1.1.1.1.1.1.1.1.1.1.1.1.1.1.1.1.1.1.1.1.1.1.1.1.1.1.1.1.1.1.1.1.",
"1.1.1.1.1.1.1.1.1.1.1.1.1.1.1.1.1.1.1.1.1.1.1.1.S U q G [ % 1.1.1.1.1.1.1.1.1.1.1.1.1.1.1.1.1.1.1.1.1.1.1.1.1.1.1.1.1.1.1.1.1.1.1.1.1.1.1.1.1.1.",
"1.1.1.1.1.1.1.1.1.1.1.1.1.1.1.1.1.1.1.1.1.1.1.: :.X.u r &.x 1.1.1.1.1.1.1.1.1.1.1.1.1.1.1.1.1.1.1.1.1.1.1.1.1.1.1.1.1.1.1.1.1.1.1.1.1.1.1.1.1.1.",
"1.1.1.1.1.1.1.1.1.1.1.1.1.1.1.1.1.1.1.1.1.1.1.1./ ,.Z 0 L [ $ 1.1.1.1.1.1.1.1.1.1.1.1.1.1.1.1.1.1.1.1.1.1.1.1.1.1.1.1.1.1.1.1.1.1.1.1.1.1.1.1.1.",
"1.1.1.1.1.1.1.1.1.1.1.1.1.1.1.1.1.1.1.1.1.1.1.1.9 ,.X.p p | f 1.1.1.1.1.1.1.1.1.1.1.1.1.1.1.1.1.1.1.1.1.1.1.1.1.1.1.1.1.1.1.1.1.1.1.1.1.1.1.1.1.",
"1.1.1.1.1.1.1.1.1.1.1.1.1.1.1.1.1.1.1.1.1.1.1.1.o ^ >.C 8 J | $ 1.1.1.1.1.1.1.1.1.1.1.1.1.1.1.1.1.1.1.1.1.1.1.1.1.1.1.1.1.1.1.1.1.1.1.1.1.1.1.1.",
"1.1.1.1.1.1.1.1.1.1.1.1.1.1.1.1.1.1.1.1.1.1.1.1.1.t <. .e p &.p 1.1.1.1.1.1.1.1.1.1.1.1.1.1.1.1.1.1.1.1.1.1.1.1.1.1.1.1.1.1.1.1.1.1.1.1.1.1.1.1.",
"1.1.1.1.1.1.1.1.1.1.1.1.1.1.1.1.1.1.1.1.1.1.1.1.1.+ @.;.v 0 L ( @ 1.1.1.1.1.1.1.1.1.1.1.1.1.1.1.1.1.1.1.1.1.1.1.1.1.1.1.1.1.1.1.1.1.1.1.1.1.1.1.",
"1.1.1.1.1.1.1.1.1.1.1.1.1.1.1.1.1.1.1.1.1.1.1.1.1.1.d <.! e p %.a 1.1.1.1.1.1.1.1.1.1.1.1.1.1.1.1.1.1.1.1.1.1.1.1.1.1.1.1.1.1.1.1.1.1.1.1.1.1.1.",
"1.1.1.1.1.1.1.1.1.1.1.1.1.1.1.1.1.1.1.1.1.1.1.1.1.1.O O.-.b 7 E { @ 1.1.1.1.1.1.1.1.1.1.1.1.1.1.1.1.1.1.1.1.1.1.1.1.1.1.1.1.1.1.1.1.1.1.1.1.1.1.",
"1.1.1.1.1.1.1.1.1.1.1.1.1.1.1.1.1.1.1.1.1.1.1.1.1.1.1.c <./ y p x ; 1.1.1.1.1.1.1.1.1.1.1.1.1.1.1.1.1.1.1.1.1.1.1.1.1.1.1.1.1.1.1.1.1.1.1.1.1.1.",
"1.1.1.1.1.1.1.1.1.1.1.1.1.1.1.1.1.1.1.1.1.1.1.1.1.1.1.= -. .2 & 5 9 o o 1.1.1.1.1.1.1.1.1.1.1.1.1.1.1.1.1.1.1.1.1.1.1.1.1.1.1.1.1.1.1.1.1.1.1.1.",
"1.1.1.1.1.1.1.1.1.1.1.1.1.1.1.1.1.1.1.1.1.1.1.1.1.1.1.1.h 9 # O 2 t + O 1.1.1.1.1.1.1.1.1.1.1.1.1.1.1.1.1.1.1.1.1.1.1.1.1.1.1.1.1.1.1.1.1.1.1.1.",
"1.1.1.1.1.1.1.1.1.1.1.1.1.1.1.1.1.1.1.1.1.1.1.1.1.1.1.1.9 w : O & w 9 X O 1.1.1.1.1.1.1.1.1.1.1.1.1.1.1.1.1.1.1.1.1.1.1.1.1.1.1.1.1.1.1.1.1.1.1.",
"1.1.1.1.1.1.1.1.1.1.1.1.1.1.1.1.1.1.1.1.1.1.1.1.1.1.1.# w t 5 & + 5 i # X 1.1.1.1.1.1.1.1.1.1.1.1.1.1.1.1.1.1.1.1.1.1.1.1.1.1.1.1.1.1.1.1.1.1.1.",
"1.1.1.1.1.1.1.1.1.1.1.1.1.1.1.1.1.1.1.1.1.1.1.1.1.1.1.# 2 t w = O = t 2 X o 1.1.1.1.1.1.1.1.1.1.1.1.1.1.1.1.1.1.1.1.1.1.1.1.1.1.1.1.1.1.1.1.1.1.",
"1.1.1.1.1.1.1.1.1.1.1.1.1.1.1.1.1.1.1.1.1.1.1.1.1.1.> X & 9 i 2 # # 9 t # O 1.1.1.1.1.1.1.1.1.1.1.1.1.1.1.1.1.1.1.1.1.1.1.1.1.1.1.1.1.1.1.1.1.1.",
"1.1.1.1.1.1.1.1.1.1.1.1.1.1.1.1.1.1.1.1.1.1.1.1.1.1.C n d 9 t 9 = + : i 2 . o 1.1.1.1.1.1.1.1.1.1.1.1.1.1.1.1.1.1.1.1.1.1.1.1.1.1.1.1.1.1.1.1.1.",
"1.1.1.1.1.1.1.1.1.1.1.1.1.1.1.1.1.1.1.1.1.1.1.1.i N C C C C c t 2 # # 9 t o o 1.1.1.1.1.1.1.1.1.1.1.1.1.1.1.1.1.1.1.1.1.1.1.1.1.1.1.1.1.1.1.1.1.",
"1.1.1.1.1.1.1.1.1.1.1.1.1.1.1.1.1.1.1.1.1.1.o i T  . .T D C N g 9 & O : u 2 X 1.1.1.1.1.1.1.1.1.1.1.1.1.1.1.1.1.1.1.1.1.1.1.1.1.1.1.1.1.1.1.1.1.",
"1.1.1.1.1.1.1.1.1.1.1.1.1.1.1.1.1.1.1.1.1.# = S X.<.-.X.T D c c t 2 O & 9 t O o 1.1.1.1.1.1.1.1.1.1.1.1.1.1.1.1.1.1.1.1.1.1.1.1.1.1.1.1.1.1.1.1.",
"1.1.1.1.1.1.1.1.1.1.1.1.1.1.1.1.1.1.1.1.1.= 2 I X.<.<.>.$.X.n z t 9 & + : i = o 1.1.1.1.1.1.1.1.1.1.1.1.1.1.1.1.1.1.1.1.1.1.1.1.1.1.1.1.1.1.1.1.",
"1.1.1.1.1.1.1.1.1.1.1.1.1.1.1.1.1.1.1.1.1.: 2 Z ~ -.>.<.<.;.D h w e : + & w w o o 1.o $ % % 1.1.1.1.1.1.1.1.1.1.1.1.1.1.1.1.1.1.1.1.1.1.1.1.1.1.",
"1.1.1.1.1.1.1.1.1.1.1.1.1.1.1.1.1.1.1.1.1.9 : i C T #.;.<.X.T 5 2 i 9 & O > i & o & * , 8 6 % 1.1.1.1.1.1.1.1.1.1.1.1.1.1.1.1.1.1.1.1.1.1.1.1.1.",
"1.1.1.1.1.1.1.1.1.1.1.1.1.1.1.1.1.1.1.1.O t 5 = g N Y ^ ! D h o - t w - + & 9 2 < 3 1 k b i # 1.1.1.1.1.1.1.1.1.1.1.1.1.1.1.1.1.1.1.1.1.1.1.1.1.",
"1.1.1.1.1.1.1.1.1.1.1.1.1.1.1.1.1.1.1.1.& t 9 : & w n N N c 9 . O 9 i 5 & + : i z y g S R +.q 1.1.1.1.1.1.1.1.1.1.1.1.1.1.1.1.1.1.1.1.1.1.1.1.1.",
"1.1.1.1.1.1.1.1.1.1.1.1.1.1.1.1.1.1.1.1.: i t 2 = + # : 2 t i & . > i w - & i T Y d / T T R +.K - 1.1.1.1.1.1.1.1.1.1.1.1.1.1.1.1.1.1.1.1.1.1.1.",
"1.1.1.1.1.1.1.1.1.1.1.1.1.1.1.1.1.1.1.1.2 i t 9 > # o & > 9 d 2 . & w t : > n T I g h ..>.^ D ] +.4 1.1.1.1.1.1.1.1.1.1.1.1.1.1.1.1.1.1.1.1.1.1.",
"1.1.1.1.1.1.1.1.1.1.1.1.1.1.1.1.1.1.1.1.2 t i w 2 2 d c c d t i & o 2 5 & w c i i i 9 9 ~ :.#.T Q z 1.1.1.1.1.1.1.1.1.1.1.1.1.1.1.1.1.1.1.1.1.1.",
"1.1.1.1.1.1.1.1.1.1.1.1.1.1.1.1.1.1.1.# = 9 i t 9 C S D n N h i 5 . = = 2 $.D c K i #   . i =.<. .# 1.1.1.1.1.1.1.1.1.1.1.1.1.1.1.1.1.1.1.1.1.1.",
"1.1.1.1.1.1.1.1.1.1.1.1.1.1.1.1.1.1.1.+ # 2 t t n T -.-. .C C d i O O = 9 I X.Y %.v . 1.1.1.- g 9 1.1.1.1.1.1.1.1.1.1.1.1.1.1.1.1.1.1.1.1.1.1.1.",
"1.1.1.1.1.1.1.1.1.1.1.1.1.1.1.1.1.1.1.. o - w t C Y ,.<.>.^ S d i = o + # 2 $.! ) } # 1.1.1.1.1.1.1.1.1.1.1.1.1.1.1.1.1.1.1.1.1.1.1.1.1.1.1.1.1.",
"1.1.1.1.1.1.1.1.1.1.1.1.1.1.1.1.1.1.1.. . # 5 t h S ! $.-./ n > # . 1.1.1.1.Y $.Y *.u 1.1.1.1.1.1.1.1.1.1.1.a 1.1.1.1.1.1.1.1.1.1.1.1.1.1.1.1.1.",
"1.1.1.1.1.1.1.1.1.1.1.1.1.1.1.1.1.1.X     o : w t n C n S S #   1.1.1.1.1.1.9 :.! +.Q + 1.1.1.1.1.1.1.1.G } B 1.1.1.1.1.1.1.1.1.1.1.1.1.1.1.1.1.",
"1.1.1.1.1.1.1.1.1.1.1.1.1.1.1.1.1.1.o     . & 5 t 2 : 4 5 O 1.1.1.1.1.1.1.1.1.@.$.W %.- 1.1.1.1.1.1.K _ f 3 1.1.1.1.1.1.1.1.1.1.1.1.1.1.1.1.1.1.",
"1.1.1.1.1.1.1.1.1.1.1.1.1.1.1.1.1.1.O       o 3 > . 1.1.1.1.1.1.1.1.1.1.1.1.1.t  .c y o 1.1.1.1.M ..Y =   X o 1.1.1.1.1.1.1.1.1.1.1.1.1.1.1.1.1.",
"1.1.1.1.1.1.1.1.1.1.1.1.1.1.1.1.1.1.X       X = o 1.1.1.1.1.1.1.1.> h o.M 1.1.1.1.  1.1.1.1.m X.H =     . . o 1.1.1.1.1.1.1.1.1.1.1.1.1.1.1.1.1.",
"1.1.1.1.1.1.1.1.1.1.1.1.1.1.1.1.1.1..         # . 1.1.1.1.1.1.1.1.X.X.o.) & 1.1.1.1.1.1.s U c :     . .   X O 1.1.1.1.1.1.1.1.1.1.1.1.1.1.1.1.1.",
"1.1.1.1.1.1.1.1.1.1.1.1.1.1.1.1.1.O           O 1.1.1.1.1.1.1.1.1.I ;./ ` # o 1.1.* x Z g i : . . .   X O o . 1.1.1.1.1.1.1.1.1.1.1.1.1.1.1.1.1.",
"1.1.1.1.1.1.1.1.1.1.1.1.1.1.1.1.1.o           O 1.1.1.1.1.1.1.1.1.: T N l 2 : & q K c 2 2 i i #   . o O . 1.1.1.1.1.1.1.1.1.1.1.1.1.1.1.1.1.1.1.",
"1.1.1.1.1.1.1.1.1.1.1.1.1.1.1.1.1.O         . O 1.1.1.1.1.1.1.1.O = 5 t w 9 2 = : = O = 5 t d 5 o # @ 1.1.1.1.1.1.1.1.1.1.1.1.1.1.1.1.1.1.1.1.1.",
"1.1.1.1.1.1.1.1.1.1.1.1.1.1.1.1.1.o .       . O 1.1.1.1.1.1.o X + : 9 t t t 9 : & + O & > w t 2 o . o 1.1.1.1.1.1.1.1.1.1.1.1.1.1.1.1.1.1.1.1.1.",
"1.1.1.1.1.1.1.1.1.1.1.1.1.1.1.1.1.1.o         O 1.1.1.1.O X .   . & 2 t i t 9 2 = # O # : : : 9 o   o X 1.1.1.1.1.1.1.1.1.1.1.1.1.1.1.1.1.1.1.1.",
"1.1.1.1.1.1.1.1.1.1.1.1.1.1.1.1.1.1.o         o 1.1.1.o           # : 9 t i w 5 : & + # + X & t -   O . 1.1.1.1.1.1.1.1.1.1.1.1.1.1.1.1.1.1.1.1.",
"1.1.1.1.1.1.1.1.1.1.1.1.1.1.1.1.1.1.o         . o 1.1.O           X & 5 t i t 9 2 = = o     o 5 9 # X 1.1.1.1.1.1.1.1.1.1.1.1.1.1.1.1.1.1.1.1.1.",
"1.1.1.1.1.1.1.1.1.1.1.1.1.1.1.1.1.1.X .         o 1.1.1..           # : 9 t w : & 9 2 O   . # O X   1.1.1.1.1.1.1.1.1.1.1.1.1.1.1.1.1.1.1.1.1.1.",
"1.1.1.1.1.1.1.1.1.1.1.1.1.1.1.1.1.1.1.X           o X 1.#           o = 2 2 5 = X 5 2 & o o . 1.1.1.1.1.1.1.1.1.1.1.1.1.1.1.1.1.1.1.1.1.1.1.1.1.",
"1.1.1.1.1.1.1.1.1.1.1.1.1.1.1.1.1.1.1.o .             o & +     X + & # + = 9 w O 1.. . . 1.1.1.1.1.1.1.1.1.1.1.1.1.1.1.1.1.1.1.1.1.1.1.1.1.1.1.",
"1.1.1.1.1.1.1.1.1.1.1.1.1.1.1.1.1.1.1.1.o               + = O + + > : + O $ > t : 1.1.1.1.1.1.1.1.1.1.1.1.1.1.1.1.1.1.1.1.1.1.1.1.1.1.1.1.1.1.1.",
"1.1.1.1.1.1.1.1.1.1.1.1.1.1.1.1.1.1.1.1.1.O             X & & = 2 + - = + + = w 9 1.1.1.1.1.1.1.1.1.1.1.1.1.1.1.1.1.1.1.1.1.1.1.1.1.1.1.1.1.1.1.",
"1.1.1.1.1.1.1.1.1.1.1.1.1.1.1.1.1.1.1.1.1.o X             O w D ! c - = # O & 5 : 1.1.1.1.1.1.1.1.1.1.1.1.1.1.1.1.1.1.1.1.1.1.1.1.1.1.1.1.1.1.1.",
"1.1.1.1.1.1.1.1.1.1.1.1.1.1.1.1.1.1.1.1.1.1.o X           & ] =.#.^ d ; & # # X 1.1.1.1.& 2 O 1.1.1.1.1.1.1.1.1.1.1.1.1.1.1.1.1.1.1.1.1.1.1.1.1.",
"1.1.1.1.1.1.1.1.1.1.1.1.1.1.1.1.1.1.1.1.1.1.1.1.o .       = ! =.<.#.h : = & & 1.1.1.1.1.5 9 & o O O 1.1.1.1.1.1.1.1.1.1.1.1.1.1.1.1.1.1.1.1.1.1.",
"1.1.1.1.1.1.1.1.1.1.1.1.1.1.1.1.1.1.1.1.1.1.1.1.1.X o o   o h  .@.! & : 2 & 2 X 1.1.1.1.1.= & o   . # & 1.1.1.1.1.1.1.1.1.1.1.1.1.1.1.1.1.1.1.1.",
"1.1.1.1.1.1.1.1.1.1.1.1.1.1.1.1.1.1.1.1.1.1.1.1.1.1.1.o o O o 9 t =   = : X & & 1.1.1.1.# o . o O @ & t 2 o X 1.1.1.1.1.1.1.1.1.1.1.1.1.1.1.1.1.",
"1.1.1.1.1.1.1.1.1.1.1.1.1.1.1.1.1.1.1.1.1.1.1.1.1.1.1.1.1.# .         . X O . 2 1.1.1.O .   o : 9 : O - O . . @ 1.1.1.1.1.1.1.1.1.1.1.1.1.1.1.1.",
"1.1.1.1.1.1.1.1.1.1.1.1.1.1.1.1.1.1.1.1.1.1.1.1.1.1.1.1.1.# . .       X 1.# . : - X X X O = 2 - o   1.1.. X # O 1.1.1.1.1.1.1.1.1.1.1.1.1.1.1.1.",
"1.1.1.1.1.1.1.1.1.1.1.1.1.1.1.1.1.1.1.1.1.1.1.1.1.1.1.1.1.@ . .       o 1.o X o 2 o # # o . . 1.1.1.1.1.1.1.1.1.1.1.1.1.1.1.1.1.1.1.1.1.1.1.1.1.",
"1.1.1.1.1.1.1.1.1.1.1.1.1.1.1.1.1.1.1.1.1.1.1.1.1.1.1.1.o O . .       o 1.1.O . : = . 1.1.1.1.1.1.1.1.1.1.1.1.1.1.1.1.1.1.1.1.1.1.1.1.1.1.1.1.1.",
"1.1.1.1.1.1.1.1.1.1.1.1.1.1.1.1.1.1.1.1.1.1.1.1.1.1.1.1.# o X .       O 1.1.O o # . 1.1.1.1.1.1.1.1.1.1.1.1.1.1.1.1.1.1.1.1.1.1.1.1.1.1.1.1.1.1.",
"1.1.1.1.1.1.1.1.1.1.1.1.1.1.1.1.1.1.1.1.1.1.1.1.1.1.1.1.# o X .       O 1.1.1.1.1.1.1.1.1.1.1.1.1.1.1.1.1.1.1.1.1.1.1.1.1.1.1.1.1.1.1.1.1.1.1.1.",
"1.1.1.1.1.1.1.1.1.1.1.1.1.1.1.1.1.1.1.1.# O O O O O + # # o . .       o # O O O O O # o + O O O O O O o O O O O O O O O 1.1.1.1.1.1.1.1.1.1.1.1.",
"1.1.1.1.1.1.1.1.1.1.1.1.1.1.1.1.1.1.1.2 t w 9 9 2 < = & # o X .         . X o O O & = 2 9 t i t & o o o o o X o X o o o 1.1.1.1.1.1.1.1.1.1.1.1.",
"1.1.1.1.1.1.1.1.1.1.1.1.1.1.1.1.1.1.1.5 i t 9 5 2 : = # O o X .             . o o # = 2 9 t i t &   .   .   . . . .   . 1.1.1.1.1.1.1.1.1.1.1.1.",
"1.1.1.1.1.1.1.1.1.1.1.1.1.1.1.1.1.1.1.2 t w 9 9 2 : = & # o . .             . o O # = 2 9 t d t # . . . . .   . .   . X . 1.1.1.1.1.1.1.1.1.1.1.",
"1.1.1.1.1.1.1.1.1.1.1.1.1.1.1.1.1.1.1.2 t t 9 9 2 : = & # o X .             . o o # & 2 9 t d t & .   . . . . . . . . X . 1.1.1.1.1.1.1.1.1.1.1.",
"1.1.1.1.1.1.1.1.1.1.1.1.1.1.1.1.1.1.1.2 i w w 5 5 > = & # o X . .     .   . X o + # = 2 9 t d t & . . . . . . . . . . o X 1.1.1.1.1.1.1.1.1.1.1.",
"1.1.1.1.1.1.1.1.1.1.1.1.1.1.1.1.1.1.1.# & = & & & # # # # # O O o O O o O O O O # # # & & & = & # O O O O o O O O O o # 1.1.1.1.1.1.1.1.1.1.1.1.",
"1.1.1.1.1.1.1.1.1.1.1.1.1.1.1.1.1.1.1.1.1.1.1.1.1.1.1.1.1.1.1.1.1.1.1.1.1.1.1.1.1.1.1.1.1.1.1.1.1.1.1.1.1.1.1.1.1.1.1.1.1.1.1.1.1.1.1.1.1.1.1.1.",
"1.1.1.1.1.1.1.1.1.1.1.1.1.1.1.1.1.1.1.1.1.1.1.1.1.1.1.1.1.1.1.1.1.1.1.1.1.1.1.1.1.1.1.1.1.1.1.1.1.1.1.1.1.1.1.1.1.1.1.1.1.1.1.1.1.1.1.1.1.1.1.1.",
"1.1.1.1.1.1.1.1.1.1.1.1.1.1.1.1.1.1.1.1.1.1.1.1.1.1.1.1.1.1.1.1.1.1.1.1.1.1.1.1.1.1.1.1.1.1.1.1.1.1.1.1.1.1.1.1.1.1.1.1.1.1.1.1.1.1.1.1.1.1.1.1."
};
